<mxfile host="app.diagrams.net" modified="2021-08-26T04:29:00.968Z" agent="5.0 (Macintosh; Intel Mac OS X 10_15_7) AppleWebKit/605.1.15 (KHTML, like Gecko) Version/14.1.1 Safari/605.1.15" etag="LuMJQcGwIbZUAp6FDLFI" version="14.9.9" type="github">
  <diagram id="R2lEEEUBdFMjLlhIrx00" name="Page-1">
    <mxGraphModel dx="777" dy="522" grid="1" gridSize="10" guides="1" tooltips="1" connect="1" arrows="1" fold="1" page="1" pageScale="1" pageWidth="850" pageHeight="1100" math="0" shadow="0" extFonts="Permanent Marker^https://fonts.googleapis.com/css?family=Permanent+Marker">
      <root>
        <mxCell id="0" />
        <mxCell id="1" parent="0" />
        <mxCell id="EFr7Zpfa6URMG37LFYr5-8" value="Resource Type" style="rounded=1;whiteSpace=wrap;html=1;" vertex="1" parent="1">
          <mxGeometry x="360" y="240" width="120" height="30" as="geometry" />
        </mxCell>
        <mxCell id="EFr7Zpfa6URMG37LFYr5-12" value="Resource" style="shape=note;whiteSpace=wrap;html=1;backgroundOutline=1;darkOpacity=0.05;" vertex="1" parent="1">
          <mxGeometry x="360" y="110" width="120" height="75" as="geometry" />
        </mxCell>
        <mxCell id="EFr7Zpfa6URMG37LFYr5-18" value="&lt;b&gt;Create&lt;/b&gt;" style="rounded=1;whiteSpace=wrap;html=1;" vertex="1" parent="1">
          <mxGeometry x="720" y="820" width="100" height="30" as="geometry" />
        </mxCell>
        <mxCell id="EFr7Zpfa6URMG37LFYr5-19" value="&lt;b&gt;Update&lt;/b&gt;" style="rounded=1;whiteSpace=wrap;html=1;" vertex="1" parent="1">
          <mxGeometry x="720" y="870" width="100" height="30" as="geometry" />
        </mxCell>
        <mxCell id="EFr7Zpfa6URMG37LFYr5-30" value="&lt;b&gt;Read&lt;/b&gt;" style="rounded=1;whiteSpace=wrap;html=1;" vertex="1" parent="1">
          <mxGeometry x="450" y="500" width="100" height="30" as="geometry" />
        </mxCell>
        <mxCell id="EFr7Zpfa6URMG37LFYr5-39" style="edgeStyle=none;rounded=0;orthogonalLoop=1;jettySize=auto;html=1;exitX=1;exitY=0.5;exitDx=0;exitDy=0;" edge="1" parent="1" source="EFr7Zpfa6URMG37LFYr5-38">
          <mxGeometry relative="1" as="geometry">
            <mxPoint x="399.9999999999999" y="884.6666666666667" as="targetPoint" />
          </mxGeometry>
        </mxCell>
        <mxCell id="EFr7Zpfa6URMG37LFYr5-41" style="edgeStyle=none;rounded=0;orthogonalLoop=1;jettySize=auto;html=1;exitX=0.5;exitY=1;exitDx=0;exitDy=0;entryX=0;entryY=0.5;entryDx=0;entryDy=0;" edge="1" parent="1" source="EFr7Zpfa6URMG37LFYr5-38" target="EFr7Zpfa6URMG37LFYr5-42">
          <mxGeometry relative="1" as="geometry">
            <mxPoint x="329.9999999999999" y="940" as="targetPoint" />
          </mxGeometry>
        </mxCell>
        <mxCell id="EFr7Zpfa6URMG37LFYr5-47" style="edgeStyle=none;rounded=0;orthogonalLoop=1;jettySize=auto;html=1;exitX=0.5;exitY=0;exitDx=0;exitDy=0;entryX=0.5;entryY=1;entryDx=0;entryDy=0;" edge="1" parent="1" source="EFr7Zpfa6URMG37LFYr5-38" target="EFr7Zpfa6URMG37LFYr5-46">
          <mxGeometry relative="1" as="geometry" />
        </mxCell>
        <mxCell id="EFr7Zpfa6URMG37LFYr5-50" style="edgeStyle=none;rounded=0;orthogonalLoop=1;jettySize=auto;html=1;exitX=0;exitY=0.5;exitDx=0;exitDy=0;entryX=1;entryY=0.5;entryDx=0;entryDy=0;" edge="1" parent="1" source="EFr7Zpfa6URMG37LFYr5-38" target="EFr7Zpfa6URMG37LFYr5-49">
          <mxGeometry relative="1" as="geometry" />
        </mxCell>
        <mxCell id="EFr7Zpfa6URMG37LFYr5-38" value="&lt;b&gt;Access Policy&lt;/b&gt;" style="rounded=1;whiteSpace=wrap;html=1;fillColor=#67AB9F;" vertex="1" parent="1">
          <mxGeometry x="250" y="870" width="100" height="30" as="geometry" />
        </mxCell>
        <mxCell id="EFr7Zpfa6URMG37LFYr5-40" value="&lt;b&gt;Read&lt;/b&gt;" style="rounded=1;whiteSpace=wrap;html=1;" vertex="1" parent="1">
          <mxGeometry x="400" y="870" width="100" height="30" as="geometry" />
        </mxCell>
        <mxCell id="EFr7Zpfa6URMG37LFYr5-43" style="edgeStyle=none;rounded=0;orthogonalLoop=1;jettySize=auto;html=1;exitX=0.5;exitY=0;exitDx=0;exitDy=0;entryX=0.5;entryY=1;entryDx=0;entryDy=0;" edge="1" parent="1" source="EFr7Zpfa6URMG37LFYr5-42" target="EFr7Zpfa6URMG37LFYr5-40">
          <mxGeometry relative="1" as="geometry" />
        </mxCell>
        <mxCell id="EFr7Zpfa6URMG37LFYr5-42" value="&lt;b&gt;Create&lt;/b&gt;" style="rounded=1;whiteSpace=wrap;html=1;" vertex="1" parent="1">
          <mxGeometry x="340" y="950" width="100" height="30" as="geometry" />
        </mxCell>
        <mxCell id="EFr7Zpfa6URMG37LFYr5-48" style="edgeStyle=none;rounded=0;orthogonalLoop=1;jettySize=auto;html=1;exitX=1;exitY=0.25;exitDx=0;exitDy=0;entryX=0.5;entryY=0;entryDx=0;entryDy=0;" edge="1" parent="1" source="EFr7Zpfa6URMG37LFYr5-46" target="EFr7Zpfa6URMG37LFYr5-40">
          <mxGeometry relative="1" as="geometry" />
        </mxCell>
        <mxCell id="EFr7Zpfa6URMG37LFYr5-46" value="&lt;b&gt;Update&lt;/b&gt;" style="rounded=1;whiteSpace=wrap;html=1;" vertex="1" parent="1">
          <mxGeometry x="250" y="810" width="100" height="30" as="geometry" />
        </mxCell>
        <mxCell id="EFr7Zpfa6URMG37LFYr5-51" style="edgeStyle=orthogonalEdgeStyle;rounded=0;orthogonalLoop=1;jettySize=auto;html=1;exitX=0.5;exitY=0;exitDx=0;exitDy=0;entryX=0.5;entryY=0;entryDx=0;entryDy=0;" edge="1" parent="1" source="EFr7Zpfa6URMG37LFYr5-49" target="EFr7Zpfa6URMG37LFYr5-40">
          <mxGeometry relative="1" as="geometry">
            <Array as="points">
              <mxPoint x="140" y="770" />
              <mxPoint x="450" y="770" />
            </Array>
          </mxGeometry>
        </mxCell>
        <mxCell id="EFr7Zpfa6URMG37LFYr5-52" style="edgeStyle=orthogonalEdgeStyle;rounded=0;orthogonalLoop=1;jettySize=auto;html=1;exitX=0.75;exitY=0;exitDx=0;exitDy=0;entryX=0;entryY=0.5;entryDx=0;entryDy=0;" edge="1" parent="1" source="EFr7Zpfa6URMG37LFYr5-49" target="EFr7Zpfa6URMG37LFYr5-46">
          <mxGeometry relative="1" as="geometry" />
        </mxCell>
        <mxCell id="EFr7Zpfa6URMG37LFYr5-49" value="&lt;b&gt;Delete&lt;/b&gt;" style="rounded=1;whiteSpace=wrap;html=1;" vertex="1" parent="1">
          <mxGeometry x="90" y="870" width="100" height="30" as="geometry" />
        </mxCell>
        <mxCell id="EFr7Zpfa6URMG37LFYr5-62" value="&lt;b&gt;Delete&lt;/b&gt;" style="rounded=1;whiteSpace=wrap;html=1;" vertex="1" parent="1">
          <mxGeometry x="600" y="900" width="100" height="30" as="geometry" />
        </mxCell>
        <mxCell id="EFr7Zpfa6URMG37LFYr5-64" value="&lt;b&gt;Write&lt;/b&gt;" style="rounded=1;whiteSpace=wrap;html=1;" vertex="1" parent="1">
          <mxGeometry x="600" y="840" width="100" height="30" as="geometry" />
        </mxCell>
        <mxCell id="EFr7Zpfa6URMG37LFYr5-81" style="edgeStyle=orthogonalEdgeStyle;rounded=0;orthogonalLoop=1;jettySize=auto;html=1;exitX=1;exitY=0;exitDx=0;exitDy=0;entryX=0;entryY=0.5;entryDx=0;entryDy=0;" edge="1" parent="1" source="EFr7Zpfa6URMG37LFYr5-65" target="EFr7Zpfa6URMG37LFYr5-69">
          <mxGeometry relative="1" as="geometry" />
        </mxCell>
        <mxCell id="EFr7Zpfa6URMG37LFYr5-82" style="edgeStyle=orthogonalEdgeStyle;rounded=0;orthogonalLoop=1;jettySize=auto;html=1;exitX=1;exitY=1;exitDx=0;exitDy=0;entryX=0;entryY=0.5;entryDx=0;entryDy=0;" edge="1" parent="1" source="EFr7Zpfa6URMG37LFYr5-65" target="EFr7Zpfa6URMG37LFYr5-73">
          <mxGeometry relative="1" as="geometry" />
        </mxCell>
        <mxCell id="EFr7Zpfa6URMG37LFYr5-83" style="edgeStyle=orthogonalEdgeStyle;rounded=0;orthogonalLoop=1;jettySize=auto;html=1;exitX=1;exitY=0.5;exitDx=0;exitDy=0;entryX=0;entryY=0.5;entryDx=0;entryDy=0;" edge="1" parent="1" source="EFr7Zpfa6URMG37LFYr5-65" target="EFr7Zpfa6URMG37LFYr5-71">
          <mxGeometry relative="1" as="geometry" />
        </mxCell>
        <mxCell id="EFr7Zpfa6URMG37LFYr5-65" value="Access Policy" style="rounded=1;whiteSpace=wrap;html=1;" vertex="1" parent="1">
          <mxGeometry x="490" y="280" width="100" height="30" as="geometry" />
        </mxCell>
        <mxCell id="EFr7Zpfa6URMG37LFYr5-69" value="Owner" style="rounded=1;whiteSpace=wrap;html=1;" vertex="1" parent="1">
          <mxGeometry x="680" y="240" width="130" height="30" as="geometry" />
        </mxCell>
        <mxCell id="EFr7Zpfa6URMG37LFYr5-71" value="Anyone" style="rounded=1;whiteSpace=wrap;html=1;" vertex="1" parent="1">
          <mxGeometry x="680" y="280" width="130" height="30" as="geometry" />
        </mxCell>
        <mxCell id="EFr7Zpfa6URMG37LFYr5-73" value="User" style="rounded=1;whiteSpace=wrap;html=1;" vertex="1" parent="1">
          <mxGeometry x="680" y="320" width="130" height="30" as="geometry" />
        </mxCell>
        <mxCell id="EFr7Zpfa6URMG37LFYr5-75" value="Actor" style="shape=process;whiteSpace=wrap;html=1;backgroundOutline=1;" vertex="1" parent="1">
          <mxGeometry x="50" y="332.5" width="120" height="60" as="geometry" />
        </mxCell>
        <mxCell id="EFr7Zpfa6URMG37LFYr5-77" value="Access Policies" style="rounded=1;whiteSpace=wrap;html=1;" vertex="1" parent="1">
          <mxGeometry x="360" y="280" width="120" height="30" as="geometry" />
        </mxCell>
        <mxCell id="EFr7Zpfa6URMG37LFYr5-78" value="Policy" style="shape=note;whiteSpace=wrap;html=1;backgroundOutline=1;darkOpacity=0.05;" vertex="1" parent="1">
          <mxGeometry x="50" y="500" width="120" height="75" as="geometry" />
        </mxCell>
        <mxCell id="EFr7Zpfa6URMG37LFYr5-79" value="Resource Owner" style="rounded=1;whiteSpace=wrap;html=1;" vertex="1" parent="1">
          <mxGeometry x="360" y="200" width="120" height="30" as="geometry" />
        </mxCell>
        <mxCell id="EFr7Zpfa6URMG37LFYr5-84" value="&lt;b&gt;Read&lt;/b&gt;" style="rounded=1;whiteSpace=wrap;html=1;" vertex="1" parent="1">
          <mxGeometry x="810" y="240" width="100" height="30" as="geometry" />
        </mxCell>
        <mxCell id="EFr7Zpfa6URMG37LFYr5-85" value="&lt;b&gt;Write&lt;/b&gt;" style="rounded=1;whiteSpace=wrap;html=1;" vertex="1" parent="1">
          <mxGeometry x="910" y="240" width="100" height="30" as="geometry" />
        </mxCell>
        <mxCell id="EFr7Zpfa6URMG37LFYr5-86" value="&lt;b&gt;Delete&lt;/b&gt;" style="rounded=1;whiteSpace=wrap;html=1;" vertex="1" parent="1">
          <mxGeometry x="1010" y="240" width="100" height="30" as="geometry" />
        </mxCell>
        <mxCell id="EFr7Zpfa6URMG37LFYr5-88" value="&lt;b&gt;Invoke Policy&lt;/b&gt;" style="rounded=1;whiteSpace=wrap;html=1;fillColor=#67AB9F;" vertex="1" parent="1">
          <mxGeometry x="250" y="1040" width="100" height="30" as="geometry" />
        </mxCell>
        <mxCell id="EFr7Zpfa6URMG37LFYr5-89" value="&lt;b&gt;Read&lt;/b&gt;" style="rounded=1;whiteSpace=wrap;html=1;" vertex="1" parent="1">
          <mxGeometry x="810" y="320" width="100" height="30" as="geometry" />
        </mxCell>
        <mxCell id="EFr7Zpfa6URMG37LFYr5-90" value="Group" style="rounded=1;whiteSpace=wrap;html=1;" vertex="1" parent="1">
          <mxGeometry x="50" y="412.5" width="120" height="30" as="geometry" />
        </mxCell>
        <mxCell id="EFr7Zpfa6URMG37LFYr5-91" value="Policies" style="rounded=1;whiteSpace=wrap;html=1;" vertex="1" parent="1">
          <mxGeometry x="50" y="452.5" width="120" height="30" as="geometry" />
        </mxCell>
        <mxCell id="EFr7Zpfa6URMG37LFYr5-92" value="Resource Type" style="rounded=1;whiteSpace=wrap;html=1;" vertex="1" parent="1">
          <mxGeometry x="190" y="500" width="120" height="30" as="geometry" />
        </mxCell>
        <mxCell id="EFr7Zpfa6URMG37LFYr5-93" value="Access Policy" style="rounded=1;whiteSpace=wrap;html=1;" vertex="1" parent="1">
          <mxGeometry x="330" y="500" width="100" height="30" as="geometry" />
        </mxCell>
        <mxCell id="EFr7Zpfa6URMG37LFYr5-94" value="&lt;b&gt;Read&lt;/b&gt;" style="rounded=1;whiteSpace=wrap;html=1;" vertex="1" parent="1">
          <mxGeometry x="450" y="545" width="100" height="30" as="geometry" />
        </mxCell>
        <mxCell id="EFr7Zpfa6URMG37LFYr5-95" value="Resource Type" style="rounded=1;whiteSpace=wrap;html=1;" vertex="1" parent="1">
          <mxGeometry x="190" y="545" width="120" height="30" as="geometry" />
        </mxCell>
        <mxCell id="EFr7Zpfa6URMG37LFYr5-96" value="Access Policy" style="rounded=1;whiteSpace=wrap;html=1;" vertex="1" parent="1">
          <mxGeometry x="330" y="545" width="100" height="30" as="geometry" />
        </mxCell>
        <mxCell id="EFr7Zpfa6URMG37LFYr5-97" value="&lt;b&gt;Read&lt;/b&gt;" style="rounded=1;whiteSpace=wrap;html=1;" vertex="1" parent="1">
          <mxGeometry x="600" y="790" width="100" height="30" as="geometry" />
        </mxCell>
        <mxCell id="EFr7Zpfa6URMG37LFYr5-98" value="&lt;b&gt;Write&lt;/b&gt;" style="rounded=1;whiteSpace=wrap;html=1;" vertex="1" parent="1">
          <mxGeometry x="560" y="545" width="100" height="30" as="geometry" />
        </mxCell>
        <mxCell id="EFr7Zpfa6URMG37LFYr5-99" value="&lt;b&gt;Invoke:group&lt;/b&gt;" style="rounded=1;whiteSpace=wrap;html=1;" vertex="1" parent="1">
          <mxGeometry x="670" y="545" width="100" height="30" as="geometry" />
        </mxCell>
        <mxCell id="EFr7Zpfa6URMG37LFYr5-100" value="Policies" style="rounded=1;whiteSpace=wrap;html=1;" vertex="1" parent="1">
          <mxGeometry x="190" y="412.5" width="120" height="30" as="geometry" />
        </mxCell>
      </root>
    </mxGraphModel>
  </diagram>
</mxfile>
